 <svg  version="1.0" xmlns="http://www.w3.org/2000/svg"  width="900.000000pt" height="900.000000pt" viewBox="0 0 900.000000 900.000000"  preserveAspectRatio="xMidYMid meet">  <g transform="translate(0.000000,900.000000) scale(0.100000,-0.100000)" fill="#ffffff" stroke="none"> <path d="M4115 8403 c-223 -34 -463 -95 -593 -149 -18 -8 -37 -14 -42 -14 -31 0 -380 -176 -478 -241 -24 -16 -45 -29 -48 -29 -2 0 -66 -46 -142 -102 -94 -70 -189 -154 -303 -267 -220 -221 -343 -381 -478 -624 -58 -105 -151 -301 -151 -320 0 -7 -6 -21 -14 -32 -7 -11 -16 -31 -19 -45 -5 -23 -10 -39 -42 -130 -7 -19 -20 -64 -30 -100 -9 -36 -23 -88 -31 -116 -8 -28 -14 -62 -14 -76 0 -14 -6 -56 -14 -94 -73 -351 -35 -917 86 -1269 5 -16 13 -43 18 -60 13 -46 31 -97 46 -127 8 -14 14 -31 14 -37 0 -31 147 -323 211 -419 16 -24 29 -45 29 -47 0 -12 114 -170 195 -270 96 -119 363 -373 497 -473 75 -56 139 -102 141 -102 3 0 33 -18 66 -40 104 -69 319 -176 466 -232 206 -78 385 -124 640 -163 140 -21 590 -21 730 0 525 81 910 238 1315 539 175 129 428 380 566 561 41 53 124 174 124 179 0 3 13 24 29 48 64 96 211 388 211 419 0 6 6 23 14 37 15 30 33 81 46 127 5 17 13 44 18 60 120 351 159 919 86 1269 -8 38 -14 80 -14 94 0 14 -7 50 -16 81 -8 31 -22 81 -30 111 -9 30 -20 69 -26 85 -5 17 -13 44 -18 60 -5 17 -18 55 -30 85 -12 30 -25 67 -29 81 -14 42 -101 225 -152 316 -134 241 -257 401 -474 619 -238 239 -421 374 -705 521 -289 150 -550 232 -917 288 -134 20 -606 19 -738 -2z m467 -1119 c58 -19 118 -71 154 -131 27 -47 28 -53 34 -228 l5 -180 165 -5 c191 -6 227 -17 296 -92 51 -55 58 -68 74 -135 24 -104 -37 -242 -131 -294 -74 -41 -82 -42 -488 -46 -380 -4 -396 -5 -424 -25 -77 -55 -72 -178 8 -228 29 -18 49 -20 207 -20 262 0 409 -38 547 -142 162 -122 252 -278 281 -485 31 -231 -75 -494 -258 -638 -56 -45 -180 -115 -202 -115 -7 0 -27 -7 -45 -16 l-33 -15 -4 -182 c-3 -179 -4 -183 -32 -230 -116 -196 -375 -196 -492 0 -28 47 -29 53 -32 213 -2 91 -8 170 -13 176 -6 8 -70 13 -182 16 -192 4 -204 8 -285 83 -58 54 -82 111 -82 194 0 108 56 197 160 256 33 19 60 20 440 25 300 4 411 8 427 18 32 18 72 73 79 109 8 41 -25 114 -64 141 -28 21 -42 22 -214 22 -186 1 -272 12 -384 54 -201 74 -366 260 -424 478 -26 99 -27 259 -1 348 48 168 138 300 271 396 67 48 181 104 213 104 49 0 55 21 59 215 4 176 4 181 32 228 73 123 209 176 338 131z"/> <path d="M1295 3355 c-155 -20 -278 -69 -395 -155 -165 -123 -262 -266 -324 -481 -14 -49 -16 -141 -16 -759 0 -747 -1 -724 47 -855 84 -226 272 -415 498 -498 137 -50 -106 -47 3385 -47 3491 0 3248 -3 3385 47 226 84 415 272 498 498 48 132 47 108 47 855 0 748 1 727 -48 855 -95 249 -283 425 -548 514 -32 11 -108 24 -169 30 -146 15 -620 15 -647 0 -11 -6 -70 -61 -131 -123 -219 -221 -417 -374 -702 -542 -119 -70 -370 -194 -434 -215 -14 -4 -51 -17 -81 -29 -30 -12 -68 -25 -85 -30 -16 -4 -41 -12 -55 -17 -89 -36 -296 -86 -480 -117 -365 -61 -733 -61 -1100 0 -154 25 -388 83 -510 125 -84 29 -187 68 -240 91 -14 6 -38 17 -55 24 -102 43 -307 151 -405 212 -132 83 -314 213 -394 282 -17 14 -50 43 -75 64 -26 22 -96 90 -158 152 -61 62 -120 117 -131 123 -29 16 -550 12 -677 -4z m5513 -1406 c26 -7 54 -18 63 -25 8 -8 21 -14 27 -14 11 0 64 -63 97 -115 28 -45 27 -185 -2 -240 -29 -54 -88 -109 -143 -134 -45 -20 -54 -21 -2360 -21 l-2315 0 -50 24 c-53 25 -107 78 -140 136 -28 49 -28 191 0 235 34 55 86 115 99 115 6 0 18 6 24 13 7 6 32 17 55 24 60 16 4578 18 4645 2z"/> </g> </svg> 