 <svg  version="1.0" xmlns="http://www.w3.org/2000/svg"  width="900.000000pt" height="900.000000pt" viewBox="0 0 900.000000 900.000000"  preserveAspectRatio="xMidYMid meet">  <g transform="translate(0.000000,900.000000) scale(0.100000,-0.100000)" fill="#ffffff" stroke="none"> <path d="M480 7564 c-132 -44 -235 -109 -317 -198 -67 -75 -131 -202 -149 -300 -12 -59 -14 -464 -14 -2326 0 -2467 -3 -2331 57 -2459 81 -171 214 -289 398 -354 l60 -22 2993 -2 c2927 -3 2992 -3 2992 16 0 10 -12 45 -26 76 -23 53 -43 112 -74 220 -19 70 -40 246 -40 350 0 174 38 382 95 520 150 361 400 631 726 788 175 84 324 124 508 136 79 6 116 12 122 22 13 21 12 2924 -2 2990 -6 30 -14 70 -18 89 -12 53 -65 159 -113 221 -58 77 -132 137 -220 181 -148 75 194 68 -3557 67 -2961 0 -3382 -2 -3421 -15z m2082 -543 c224 -57 374 -141 511 -285 300 -316 388 -821 226 -1306 -32 -97 -43 -123 -92 -220 -61 -118 -139 -227 -239 -336 -70 -75 -78 -88 -78 -123 0 -59 7 -68 68 -97 148 -70 400 -191 682 -327 170 -82 234 -132 301 -237 84 -132 88 -169 88 -755 0 -527 -2 -561 -52 -665 -31 -64 -111 -146 -182 -185 -78 -43 -158 -55 -367 -55 -175 0 -188 1 -198 19 -6 13 -10 145 -10 361 0 232 -4 348 -11 363 -6 12 -25 37 -42 54 -28 29 -37 33 -85 33 -63 0 -111 -24 -133 -67 -11 -22 -15 -105 -19 -393 l-5 -365 -629 -3 c-381 -1 -634 2 -639 7 -6 6 -9 142 -8 328 2 378 -3 414 -53 460 -32 29 -42 33 -94 33 -52 0 -62 -3 -91 -32 -18 -18 -37 -43 -42 -56 -5 -13 -9 -180 -9 -371 0 -256 -3 -350 -12 -359 -18 -18 -363 -16 -448 2 -151 32 -264 130 -324 281 -20 48 -21 72 -21 615 0 539 1 568 20 620 32 88 84 171 147 232 63 62 73 68 708 371 85 41 176 84 202 96 86 41 80 68 -41 188 -174 174 -266 319 -356 563 -19 52 -42 135 -62 225 -25 115 -25 439 1 545 33 138 56 204 104 299 66 132 64 129 137 214 161 189 408 318 665 347 126 14 393 3 482 -19z m4655 -913 c35 -35 38 -42 38 -95 0 -61 -12 -87 -57 -122 -25 -20 -38 -21 -1388 -21 l-1362 -1 -35 27 c-43 33 -56 66 -50 127 3 37 12 56 37 82 18 19 42 36 54 38 12 3 630 4 1373 3 l1353 -1 37 -37z m-784 -836 c46 -45 63 -98 47 -146 -17 -53 -62 -94 -113 -101 -23 -3 -466 -5 -984 -3 l-943 3 -37 38 c-36 35 -38 41 -38 102 0 59 3 67 32 96 18 19 47 35 70 39 21 5 464 7 985 7 l947 -2 34 -33z m755 -828 c48 -28 67 -64 67 -126 0 -54 -3 -61 -38 -96 l-37 -37 -1348 -3 c-935 -2 -1358 0 -1384 8 -95 27 -118 159 -42 235 l35 35 1360 0 c1224 0 1364 -2 1387 -16z m-772 -844 c18 -12 42 -40 54 -66 20 -40 21 -50 10 -89 -14 -50 -50 -87 -99 -104 -48 -16 -1868 -16 -1922 0 -21 7 -51 25 -66 41 -24 25 -28 37 -28 91 0 47 5 69 20 89 46 61 -22 57 1034 58 952 0 964 0 997 -20z"/> <path d="M2070 6745 c-347 -63 -570 -306 -619 -675 -7 -47 -14 -97 -16 -111 -6 -43 13 -209 26 -226 12 -13 19 -8 61 37 79 86 141 192 191 325 24 64 47 150 47 174 0 30 27 91 51 117 11 12 39 27 62 33 68 19 111 -2 175 -85 180 -237 286 -284 633 -284 212 0 267 -10 347 -62 24 -15 45 -28 48 -28 2 0 4 29 4 65 0 136 -79 348 -174 467 -104 131 -260 218 -451 253 -94 17 -292 17 -385 0z"/> <path d="M1973 5948 c-6 -7 -26 -47 -46 -88 -74 -153 -182 -290 -299 -381 -43 -33 -78 -67 -78 -75 0 -14 39 -89 79 -154 8 -14 36 -53 62 -87 131 -169 300 -280 503 -329 66 -16 73 -16 145 1 164 40 317 129 431 253 105 112 165 205 230 358 l21 51 -32 69 c-52 111 -103 165 -179 188 -14 5 -128 12 -255 16 -186 7 -242 12 -291 28 -72 24 -164 72 -219 115 -22 16 -45 34 -51 39 -7 5 -15 3 -21 -4z"/> <path d="M2535 4596 c-141 -63 -316 -71 -490 -22 -72 20 -79 11 -71 -84 10 -126 50 -207 130 -266 60 -44 114 -63 180 -63 91 -1 151 24 221 94 79 79 97 128 93 256 -3 103 -8 109 -63 85z"/> <path d="M7650 3718 c-325 -45 -627 -239 -813 -520 -125 -190 -187 -398 -187 -634 0 -243 62 -446 200 -656 83 -125 252 -286 365 -347 22 -12 47 -26 55 -31 28 -16 127 -59 176 -76 216 -74 506 -73 738 0 67 22 207 91 277 137 112 75 254 217 324 324 90 138 167 335 179 460 4 35 13 65 21 71 20 15 22 235 3 232 -8 -2 -17 23 -24 72 -25 167 -87 321 -187 471 -55 83 -184 217 -267 278 -93 69 -316 181 -361 181 -11 0 -28 4 -38 10 -31 16 -221 40 -310 39 -47 -1 -115 -6 -151 -11z m809 -623 c54 -28 81 -71 81 -131 0 -51 -3 -57 -59 -121 -32 -38 -227 -235 -433 -440 -325 -324 -378 -372 -410 -378 -86 -16 -95 -10 -324 218 -231 230 -242 247 -222 326 12 48 50 86 101 99 70 19 106 -3 264 -161 l143 -142 357 357 c197 196 372 364 388 372 38 20 78 20 114 1z"/> </g> </svg> 