 <svg  version="1.0" xmlns="http://www.w3.org/2000/svg"  width="900.000000pt" height="900.000000pt" viewBox="0 0 900.000000 900.000000"  preserveAspectRatio="xMidYMid meet">  <g transform="translate(0.000000,900.000000) scale(0.100000,-0.100000)" fill="#d2896a" stroke="none"> <path d="M2061 7849 c-46 -4 -96 -12 -110 -18 -14 -5 -44 -12 -66 -16 -67 -10 -214 -65 -326 -121 -210 -106 -429 -301 -562 -502 -57 -85 -82 -132 -143 -267 -33 -74 -56 -159 -93 -343 -15 -75 -15 -4109 0 -4184 28 -140 42 -198 60 -253 20 -62 24 -70 79 -190 122 -265 402 -544 685 -682 99 -48 228 -94 321 -113 27 -6 72 -16 99 -23 72 -17 1886 -17 1965 0 30 7 80 17 110 23 150 30 371 130 518 233 168 120 364 333 428 467 4 8 18 31 30 51 64 102 138 323 163 487 17 110 14 645 -3 703 -30 98 -104 180 -204 226 -48 23 -71 27 -147 27 -76 0 -99 -4 -145 -25 -66 -31 -120 -76 -160 -134 -59 -86 -62 -104 -70 -435 -8 -303 -11 -334 -48 -423 -7 -16 -12 -30 -12 -32 0 -2 -20 -37 -45 -77 -96 -158 -236 -269 -415 -332 -93 -32 -187 -36 -970 -36 -754 0 -949 6 -974 31 -6 5 -17 9 -26 9 -21 0 -159 70 -200 101 -60 45 -153 143 -187 197 -83 129 -109 206 -124 366 -6 60 -8 862 -7 2015 3 1831 4 1918 22 1971 49 147 109 250 199 342 56 58 173 147 194 148 4 1 26 9 48 20 22 11 47 19 55 20 9 0 20 4 25 9 6 5 51 14 100 20 120 15 1609 15 1724 1 233 -30 445 -180 559 -395 74 -142 82 -188 82 -487 0 -215 3 -265 18 -325 31 -115 103 -202 212 -252 46 -21 69 -25 145 -25 76 0 99 4 147 27 66 31 130 85 165 141 49 76 53 110 53 425 0 333 -10 422 -71 611 -33 106 -111 271 -145 311 -8 8 -14 18 -14 22 0 10 -40 65 -101 142 -68 85 -188 199 -289 274 -133 99 -376 210 -525 240 -27 6 -70 15 -95 22 -54 14 -1794 22 -1929 8z"/> <path d="M6290 6350 c-125 -24 -238 -125 -276 -249 -27 -90 -13 -225 32 -298 10 -15 217 -228 461 -473 244 -245 443 -451 443 -458 0 -6 -6 -12 -12 -12 -7 0 -1003 -1 -2213 -2 l-2200 -3 -67 -33 c-70 -34 -143 -106 -173 -168 -62 -131 -49 -266 36 -381 45 -60 86 -94 155 -125 l49 -23 2200 -3 c1210 -1 2206 -2 2213 -2 6 0 12 -6 12 -12 0 -7 -199 -213 -443 -458 -244 -245 -451 -458 -461 -473 -45 -73 -59 -208 -32 -298 30 -98 104 -180 204 -226 48 -22 71 -26 147 -26 164 0 94 -59 998 842 439 438 806 810 815 826 71 129 71 261 0 390 -9 17 -376 388 -815 826 -875 872 -828 832 -963 842 -36 3 -85 2 -110 -3z"/> </g> </svg> 